<svg version="1.2" xmlns="http://www.w3.org/2000/svg" viewBox="0 0 900 900" width="128" height="128"><style>.a{fill:#f15a22}.b{fill:#989fa5}</style><path class="a" d="m147.8 553.2q6.6 0 10.8-1 4.4-1.2 7-3 2.6-2 3.6-4.6 1-2.6 1-5.8 0-6.8-6.4-11.2-6.4-4.6-22-9.8-6.8-2.4-13.6-5.4-6.8-3.2-12.2-7.8-5.4-4.8-8.8-11.4-3.4-6.8-3.4-16.4 0-9.6 3.6-17.2 3.6-7.8 10.2-13.2 6.6-5.4 16-8.2 9.4-3 21.2-3 14 0 24.2 3 10.2 3 16.8 6.6l-9 24.6q-5.8-3-13-5.2-7-2.4-17-2.4-11.2 0-16.2 3.2-4.8 3-4.8 9.4 0 3.8 1.8 6.4 1.8 2.6 5 4.8 3.4 2 7.6 3.8 4.4 1.6 9.6 3.4 10.8 4 18.8 8 8 3.8 13.2 9 5.4 5.2 8 12.2 2.6 7 2.6 17 0 19.4-13.6 30.2-13.6 10.6-41 10.6-9.2 0-16.6-1-7.4-1.2-13.2-2.8-5.6-1.6-9.8-3.4-4-1.8-6.8-3.4l8.8-24.8q6.2 3.4 15.2 6.2 9.2 2.6 22.4 2.6zm171.4 23.8h-98.2v-138.6h93.6v26.2h-62.4v27.2h55.4v25.6h-55.4v33.4h67zm58.4-140.2q31.2 0 47.8 11.2 16.6 11 16.6 34.4 0 14.6-6.8 23.8-6.6 9-19.2 14.2 4.2 5.2 8.8 12 4.6 6.6 9 14 4.6 7.2 8.8 15.2 4.2 7.8 7.8 15.4h-35q-3.8-6.8-7.8-13.8-3.8-7-8-13.6-4-6.6-8-12.4-4-6-8-10.8h-15.4v50.6h-31.2v-136.6q10.2-2 21-2.8 11-0.8 19.6-0.8zm1.8 26.6q-3.4 0-6.2 0.2-2.6 0.2-5 0.4v37.6h8.8q17.6 0 25.2-4.4 7.6-4.4 7.6-15 0-10.2-7.8-14.4-7.6-4.4-22.6-4.4zm150.2-1q-21.8 0-31.6 12.2-9.6 12-9.6 33 0 10.2 2.4 18.6 2.4 8.2 7.2 14.2 4.8 6 12 9.4 7.2 3.2 16.8 3.2 5.2 0 8.8-0.2 3.8-0.2 6.6-0.8v-48.2h31.2v68.6q-5.6 2.2-18 4.8-12.4 2.4-30.6 2.4-15.6 0-28.4-4.8-12.6-4.8-21.6-14-9-9.2-14-22.6-4.8-13.4-4.8-30.6 0-17.4 5.4-30.8 5.4-13.4 14.8-22.6 9.4-9.4 22-14.2 12.8-4.8 27.2-4.8 9.8 0 17.6 1.4 8 1.2 13.6 3 5.8 1.6 9.4 3.4 3.8 1.8 5.4 2.8l-9 25q-6.4-3.4-14.8-5.8-8.2-2.6-18-2.6zm67.4 114.6v-138.6h31.2v138.6zm85.2-69.4q0 10.2 2.4 18.4 2.6 8.2 7.2 14.2 4.8 5.8 11.6 9 6.8 3.2 15.6 3.2 8.6 0 15.4-3.2 7-3.2 11.6-9 4.8-6 7.2-14.2 2.6-8.2 2.6-18.4 0-10.2-2.6-18.4-2.4-8.4-7.2-14.2-4.6-6-11.6-9.2-6.8-3.2-15.4-3.2-8.8 0-15.6 3.4-6.8 3.2-11.6 9.2-4.6 5.8-7.2 14.2-2.4 8.2-2.4 18.2zm105.8 0q0 17.8-5.4 31.4-5.2 13.4-14.4 22.6-9.2 9-22 13.6-12.6 4.6-27.2 4.6-14.2 0-26.8-4.6-12.6-4.6-22-13.6-9.4-9.2-14.8-22.6-5.4-13.6-5.4-31.4 0-17.8 5.6-31.2 5.6-13.6 15-22.8 9.6-9.2 22-13.8 12.6-4.6 26.4-4.6 14.2 0 26.8 4.6 12.6 4.6 22 13.8 9.4 9.2 14.8 22.8 5.4 13.4 5.4 31.2z"/><path class="a" d="m204.5 297.3v78.8q2 0.2 4.5 0.4 2.7 0 6.3 0 21 0 31.1-10.6 10.3-10.6 10.3-29.4 0-19.6-9.7-29.7-9.8-10-30.8-10-2.9 0-6 0.1-3 0-5.7 0.4zm81.2 39.2q0 16.2-5.1 28.3-5 12.1-14.4 20-9.2 7.9-22.5 11.9-13.3 3.9-29.9 3.9-7.5 0-17.6-0.5-10.1-0.7-19.8-2.7v-121.5q9.7-1.8 20.2-2.4 10.6-0.7 18.1-0.7 16.1 0 29 3.6 13.2 3.6 22.5 11.4 9.4 7.7 14.4 19.8 5.1 12 5.1 28.9zm107.1 62.5h-88.4v-124.7h84.2v23.5h-56.1v24.5h49.8v23.1h-49.8v30h60.3zm82.7 0h-27q-7.4-15.6-14.6-32.6-7.2-16.9-13.7-33.4-6.5-16.6-12-31.7-5.4-15.1-9.4-27h31q3.6 10.8 7.7 23.4 4.3 12.4 8.6 24.8 4.5 12.4 8.7 23.8 4.1 11.3 7.7 19.6 3.4-8.3 7.6-19.6 4.3-11.4 8.6-23.8 4.5-12.4 8.7-24.8 4.3-12.6 7.9-23.4h29.9q-4.2 11.9-9.6 27-5.4 15.1-11.9 31.7-6.4 16.5-13.6 33.4-7.2 17-14.6 32.6z"/><path class="b" d="m513.5 394.4q-2.8 0.1-5.6-0.1-2.8-0.2-5.9-0.8v-33.6q2.4-0.5 5.3-0.7 2.8-0.2 5.2-0.2 3.4 0 6.1 0.5 2.8 0.4 4.8 1.6 2 1.1 3.1 3 1.1 1.9 1.1 4.6 0 4.2-4 6.6 3.4 1.2 4.5 3.4 1.3 2.1 1.3 4.8 0 5.5-4 8.2-4 2.8-11.9 2.8zm1-15.6h-4.9v9q0.8 0.1 1.8 0.1 1.1 0.1 2.2 0.1 3.5 0 5.7-1 2.2-1 2.2-3.7 0-2.4-1.9-3.4-1.7-1.1-5.1-1.1zm-4.9-13.5v7.6h3.8q3.6 0 5.1-0.9 1.6-1 1.6-3 0-2.1-1.6-3-1.6-0.8-4.7-0.8-1 0-2.2 0-1.1 0-2 0.1zm36.1 8.2q2.1-3.5 4-7.1 1.9-3.5 3.5-7.1h8.6q-2.8 5.6-5.9 10.8-3 5.3-6.4 10.6v13.2h-7.9v-13.1q-3.3-5.3-6.5-10.6-3-5.3-5.8-10.9h9q1.6 3.6 3.5 7.1 1.8 3.6 3.9 7.1z"/></svg>